<?xml version="1.0" encoding="utf-8"?><svg xmlns="http://www.w3.org/2000/svg" xmlns:xlink="http://www.w3.org/1999/xlink"><symbol viewBox="0 0 480 480" id="360" xmlns="http://www.w3.org/2000/svg"><path d="M391.502 210.725c-5.311-1.52-10.846 1.555-12.364 6.865-1.519 5.31 1.555 10.846 6.864 12.364C431.646 243.008 460 261.942 460 279.367c0 12.752-15.51 26.749-42.552 38.402-29.752 12.82-71.958 22.2-118.891 26.425l-40.963-.555-.139-.001c-5.46 0-9.922 4.389-9.996 9.865-.075 5.522 4.342 10.06 9.863 10.134l41.479.562.136.001c.297 0 .593-.013.888-.039 49.196-4.386 93.779-14.339 125.538-28.024C470.521 316.676 480 294.524 480 279.367c0-27.943-31.43-52.321-88.498-68.642zM96.879 199.333c-5.522 0-10 4.477-10 10s4.478 10 10 10H138v41.333H96.879c-5.522 0-10 4.477-10 10s4.478 10 10 10H148c5.523 0 10-4.477 10-10V148c0-5.523-4.477-10-10-10H96.879c-5.522 0-10 4.477-10 10s4.478 10 10 10H138v41.333H96.879zm92 81.334h61.334c5.522 0 10-4.477 10-10v-61.333c0-5.523-4.477-10-10-10h-51.334V158H240c5.523 0 10-4.477 10-10s-4.477-10-10-10h-51.121c-5.523 0-10 4.477-10 10v122.667c0 5.523 4.477 10 10 10zm10-61.334h41.334v41.333h-41.334v-41.333z"/><path d="M291.121 280.667h61.334c5.522 0 10-4.477 10-10V148c0-5.523-4.478-10-10-10h-61.334c-5.522 0-10 4.477-10 10v122.667c0 5.523 4.478 10 10 10zm10-122.667h41.334v102.667h-41.334V158zM182.857 305.537c-3.567-4.216-9.877-4.743-14.093-1.176-4.217 3.567-4.743 9.876-1.177 14.093l22.366 26.44c-47.196-3.599-89.941-12.249-121.37-24.65C37.708 308.06 20 293.162 20 279.367c0-16.018 23.736-33.28 63.493-46.176 5.254-1.704 8.131-7.344 6.427-12.598-1.703-5.253-7.345-8.13-12.597-6.427-23.129 7.502-41.47 16.427-54.515 26.526C7.674 252.412 0 265.423 0 279.367c0 23.104 21.178 43.671 61.242 59.48 32.564 12.849 76.227 21.869 124.226 25.758l-19.944 22.104c-3.7 4.1-3.376 10.424.725 14.123a9.96 9.96 0 0 0 6.696 2.576 9.975 9.975 0 0 0 7.427-3.301l36.387-40.325a9.999 9.999 0 0 0 2.576-6.699v-.764a9.999 9.999 0 0 0-2.365-6.458l-34.113-40.324zm198.557-168.051h40.879c5.522 0 10-4.477 10-10V86.592c0-5.523-4.478-10-10-10h-40.879c-5.522 0-10 4.477-10 10v40.894c0 5.523 4.478 10 10 10zm10-40.894h20.879v20.894h-20.879V96.592z"/></symbol><symbol id="OEM" viewBox="0 0 62 62" enable-background="new 0 0 62 62" xmlns="http://www.w3.org/2000/svg"><style>.bst0{fill-rule:evenodd;clip-rule:evenodd}.bst1{filter:url(#bAdobe_OpacityMaskFilter)}.bst2{fill-rule:evenodd;clip-rule:evenodd;fill:#fff}.bst3{mask:url(#bmask-2_1_)}.bst4{fill-rule:evenodd;clip-rule:evenodd;fill:#243544}</style><path class="bst0" d="M59.5 26.7h-7.6v3.4h3.8c.8 0 1.5.7 1.5 1.5 0 .9-.7 1.6-1.5 1.6h-3.8v3.4h7.6c.8 0 1.5.7 1.5 1.6 0 .9-.7 1.6-1.5 1.6h-7.6v3.4h3.8c.8 0 1.5.7 1.5 1.6 0 .9-.7 1.5-1.5 1.5h-3.9c-.6 3.3-3.1 5.9-6.3 6.4v3.9c0 .9-.7 1.6-1.5 1.6s-1.5-.7-1.5-1.6v-3.9H39v7.8c0 .9-.7 1.6-1.5 1.6s-1.5-.7-1.5-1.6v-7.8h-3.4v3.9c0 .9-.7 1.6-1.5 1.6s-1.5-.7-1.5-1.6v-3.9h-3.4v7.8c0 .9-.7 1.6-1.5 1.6s-1.5-.7-1.5-1.6v-7.8h-3.4v3.9c0 .9-.7 1.6-1.5 1.6s-1.5-.7-1.5-1.6v-3.9c-3.2-.6-5.8-3.2-6.3-6.4H6.4c-.8 0-1.5-.7-1.5-1.5 0-.9.7-1.6 1.5-1.6h3.8v-3.4H2.5C1.7 39.7 1 39 1 38.1c0-.9.7-1.6 1.5-1.6h7.6v-3.4H6.4c-.8 0-1.5-.7-1.5-1.6 0-.9.7-1.5 1.5-1.5h3.8v-3.4H2.5c-.8.1-1.5-.6-1.5-1.5s.7-1.6 1.5-1.6h7.6v-3.4H6.4c-.8 0-1.5-.7-1.5-1.6 0-.9.7-1.6 1.5-1.6h3.9c.6-3.3 3.1-5.8 6.3-6.4V6.7c0-.9.7-1.6 1.5-1.6s1.5.7 1.5 1.6v3.8H23v-9c0-.8.7-1.5 1.6-1.5.8 0 1.5.7 1.5 1.5v9h3.4V6.7c0-.9.7-1.6 1.5-1.6s1.5.7 1.5 1.6v3.8h3.4v-9c0-.9.7-1.5 1.5-1.5.9 0 1.6.7 1.6 1.5v9h3.4V6.7c0-.9.7-1.6 1.5-1.6s1.5.7 1.5 1.6v3.9c3.2.6 5.8 3.1 6.3 6.4h3.9c.8 0 1.5.7 1.5 1.6 0 .9-.7 1.6-1.5 1.6h-3.8v3.4h7.6c.8 0 1.5.7 1.5 1.6.1.8-.6 1.5-1.4 1.5zM44 49.6h.2c2.5 0 4.6-2.1 4.6-4.6V18.6c0-2.6-2-4.7-4.6-4.7H18.1c-2.5 0-4.6 2.1-4.6 4.7V45c0 2.5 2.1 4.6 4.6 4.6H18h26zM42.5 21v20c0 .9-.7 1.5-1.5 1.5H21.2c-.8 0-1.5-.7-1.5-1.5V21c0-.9.7-1.5 1.5-1.5H41c.8 0 1.5.6 1.5 1.5zM22.7 39.4h16.5V22.6H22.7v16.8z" id="bMask"/><defs><filter id="bAdobe_OpacityMaskFilter" filterUnits="userSpaceOnUse" x="0" y="0" width="62" height="62"><feColorMatrix values="1 0 0 0 0 0 1 0 0 0 0 0 1 0 0 0 0 0 1 0"/></filter></defs><mask maskUnits="userSpaceOnUse" x="0" y="0" width="62" height="62" id="bmask-2_1_"><g class="bst1"><path id="bpath-1_1_" class="bst2" d="M59.5 26.7h-7.6v3.4h3.8c.8 0 1.5.7 1.5 1.5 0 .9-.7 1.6-1.5 1.6h-3.8v3.4h7.6c.8 0 1.5.7 1.5 1.6 0 .9-.7 1.6-1.5 1.6h-7.6v3.4h3.8c.8 0 1.5.7 1.5 1.6 0 .9-.7 1.5-1.5 1.5h-3.9c-.6 3.3-3.1 5.9-6.3 6.4v3.9c0 .9-.7 1.6-1.5 1.6s-1.5-.7-1.5-1.6v-3.9H39v7.8c0 .9-.7 1.6-1.5 1.6s-1.5-.7-1.5-1.6v-7.8h-3.4v3.9c0 .9-.7 1.6-1.5 1.6s-1.5-.7-1.5-1.6v-3.9h-3.4v7.8c0 .9-.7 1.6-1.5 1.6s-1.5-.7-1.5-1.6v-7.8h-3.4v3.9c0 .9-.7 1.6-1.5 1.6s-1.5-.7-1.5-1.6v-3.9c-3.2-.6-5.8-3.2-6.3-6.4H6.4c-.8 0-1.5-.7-1.5-1.5 0-.9.7-1.6 1.5-1.6h3.8v-3.4H2.5C1.7 39.7 1 39 1 38.1c0-.9.7-1.6 1.5-1.6h7.6v-3.4H6.4c-.8 0-1.5-.7-1.5-1.6 0-.9.7-1.5 1.5-1.5h3.8v-3.4H2.5c-.8.1-1.5-.6-1.5-1.5s.7-1.6 1.5-1.6h7.6v-3.4H6.4c-.8 0-1.5-.7-1.5-1.6 0-.9.7-1.6 1.5-1.6h3.9c.6-3.3 3.1-5.8 6.3-6.4V6.7c0-.9.7-1.6 1.5-1.6s1.5.7 1.5 1.6v3.8H23v-9c0-.8.7-1.5 1.6-1.5.8 0 1.5.7 1.5 1.5v9h3.4V6.7c0-.9.7-1.6 1.5-1.6s1.5.7 1.5 1.6v3.8h3.4v-9c0-.9.7-1.5 1.5-1.5.9 0 1.6.7 1.6 1.5v9h3.4V6.7c0-.9.7-1.6 1.5-1.6s1.5.7 1.5 1.6v3.9c3.2.6 5.8 3.1 6.3 6.4h3.9c.8 0 1.5.7 1.5 1.6 0 .9-.7 1.6-1.5 1.6h-3.8v3.4h7.6c.8 0 1.5.7 1.5 1.6.1.8-.6 1.5-1.4 1.5zM44 49.6h.2c2.5 0 4.6-2.1 4.6-4.6V18.6c0-2.6-2-4.7-4.6-4.7H18.1c-2.5 0-4.6 2.1-4.6 4.7V45c0 2.5 2.1 4.6 4.6 4.6H18h26zM42.5 21v20c0 .9-.7 1.5-1.5 1.5H21.2c-.8 0-1.5-.7-1.5-1.5V21c0-.9.7-1.5 1.5-1.5H41c.8 0 1.5.6 1.5 1.5zM22.7 39.4h16.5V22.6H22.7v16.8z"/></g></mask><g class="bst3"><path id="bRectangle" class="bst4" d="M0 0h62v62H0z"/></g></symbol><symbol viewBox="0 0 64 64" id="cancel" xmlns="http://www.w3.org/2000/svg"><path d="M28.941 31.786L.613 60.114a2.014 2.014 0 1 0 2.848 2.849l28.541-28.541 28.541 28.541c.394.394.909.59 1.424.59a2.014 2.014 0 0 0 1.424-3.439L35.064 31.786 63.41 3.438A2.014 2.014 0 1 0 60.562.589L32.003 29.15 3.441.59A2.015 2.015 0 0 0 .593 3.439l28.348 28.347z"/></symbol><symbol viewBox="0 0 129 129" id="down" xmlns="http://www.w3.org/2000/svg"><path d="M121.3 34.6c-1.6-1.6-4.2-1.6-5.8 0l-51 51.1-51.1-51.1c-1.6-1.6-4.2-1.6-5.8 0-1.6 1.6-1.6 4.2 0 5.8l53.9 53.9c.8.8 1.8 1.2 2.9 1.2 1 0 2.1-.4 2.9-1.2l53.9-53.9c1.7-1.6 1.7-4.2.1-5.8z"/></symbol><symbol viewBox="0 0 471.2 471.2" id="download" xmlns="http://www.w3.org/2000/svg"><path d="M457.7 230.15c-7.5 0-13.5 6-13.5 13.5v122.8c0 33.4-27.2 60.5-60.5 60.5H87.5c-33.4 0-60.5-27.2-60.5-60.5v-124.8c0-7.5-6-13.5-13.5-13.5s-13.5 6-13.5 13.5v124.8c0 48.3 39.3 87.5 87.5 87.5h296.2c48.3 0 87.5-39.3 87.5-87.5v-122.8c0-7.4-6-13.5-13.5-13.5z"/><path d="M226.1 346.75c2.6 2.6 6.1 4 9.5 4s6.9-1.3 9.5-4l85.8-85.8c5.3-5.3 5.3-13.8 0-19.1-5.3-5.3-13.8-5.3-19.1 0l-62.7 62.8V30.75c0-7.5-6-13.5-13.5-13.5s-13.5 6-13.5 13.5v273.9l-62.8-62.8c-5.3-5.3-13.8-5.3-19.1 0-5.3 5.3-5.3 13.8 0 19.1l85.9 85.8z"/></symbol><symbol viewBox="0 0 490 490" id="dropdown" xmlns="http://www.w3.org/2000/svg"><path d="M0 15.541h490L244.991 474.459 0 15.541z"/></symbol><symbol viewBox="0 0 455.73 455.73" id="facebook" xmlns="http://www.w3.org/2000/svg"><path d="M0 0v455.73h242.704V279.691h-59.33v-71.864h59.33v-60.353c0-43.893 35.582-79.475 79.475-79.475h62.025v64.622h-44.382c-13.947 0-25.254 11.307-25.254 25.254v49.953h68.521l-9.47 71.864h-59.051V455.73H455.73V0H0z"/></symbol><symbol viewBox="0 0 492.719 492.719" id="heart" xmlns="http://www.w3.org/2000/svg"><path d="M492.719 166.008c0-73.486-59.573-133.056-133.059-133.056-47.985 0-89.891 25.484-113.302 63.569-23.408-38.085-65.332-63.569-113.316-63.569C59.556 32.952 0 92.522 0 166.008c0 40.009 17.729 75.803 45.671 100.178l188.545 188.553a17.17 17.17 0 0 0 24.284 0l188.545-188.553c27.943-24.375 45.674-60.169 45.674-100.178z"/></symbol><symbol viewBox="0 0 364 364" id="instagram" xmlns="http://www.w3.org/2000/svg"><path d="M244.424 83.438H119.577c-19.925 0-36.139 16.213-36.139 36.139v124.846c0 19.929 16.214 36.143 36.139 36.143h124.847c19.928 0 36.142-16.214 36.142-36.143V119.577c0-19.925-16.214-36.139-36.142-36.139zm-62.426 163.456c-35.779 0-64.892-29.113-64.892-64.896 0-35.779 29.113-64.892 64.892-64.892 35.783 0 64.896 29.113 64.896 64.892 0 35.783-29.113 64.896-64.896 64.896zm66.984-116.369c-8.471 0-15.359-6.888-15.359-15.354 0-8.467 6.888-15.355 15.359-15.355 8.466 0 15.354 6.888 15.354 15.355s-6.888 15.354-15.354 15.354z"/><path d="M181.998 144.531c-20.655 0-37.475 16.812-37.475 37.467 0 20.663 16.82 37.479 37.475 37.479 20.663 0 37.471-16.816 37.471-37.479 0-20.655-16.808-37.467-37.471-37.467z"/><path d="M0 0v364h364V0H0zm307.984 244.423c0 35.053-28.508 63.561-63.56 63.561H119.577c-35.049 0-63.561-28.508-63.561-63.561V119.577c0-35.049 28.512-63.561 63.561-63.561h124.847c35.052 0 63.56 28.512 63.56 63.561v124.846z"/></symbol><symbol viewBox="0 0 455 455" id="linkedin" xmlns="http://www.w3.org/2000/svg"><path d="M246.4 204.35v-.665c-.136.223-.324.446-.442.665h.442z"/><path d="M0 0v455h455V0H0zm141.522 378.002H74.016V174.906h67.506v203.096zm-33.753-230.816h-.446C84.678 147.186 70 131.585 70 112.085c0-19.928 15.107-35.087 38.211-35.087 23.109 0 37.31 15.159 37.752 35.087 0 19.5-14.643 35.101-38.194 35.101zM385 378.002h-67.524V269.345c0-27.291-9.756-45.92-34.195-45.92-18.664 0-29.755 12.543-34.641 24.693-1.776 4.34-2.24 10.373-2.24 16.459v113.426h-67.537s.905-184.043 0-203.096H246.4v28.779c8.973-13.807 24.986-33.547 60.856-33.547 44.437 0 77.744 29.02 77.744 91.398v116.465z"/></symbol><symbol viewBox="0 0 77 70" id="logo" xmlns="http://www.w3.org/2000/svg"><path d="M71.196 59.53c-10.94 18.98-11.318-15.896-30.268-26.852-18.971-10.98-49.322 6.145-38.382-12.822C13.492.861 37.737-5.639 56.705 5.333 75.64 16.282 82.143 40.534 71.196 59.53zm-27.014 7.512c-5.905 10.109-6.107-8.466-16.332-14.294-10.23-5.845-26.604 3.272-20.702-6.832 5.904-10.107 18.982-13.57 29.216-7.726 10.213 5.827 13.724 18.741 7.818 28.852z"/></symbol><symbol viewBox="0 0 396.667 396.667" id="menu" xmlns="http://www.w3.org/2000/svg"><path d="M17 87.833h362.667c9.35 0 17-7.65 17-17s-7.65-17-17-17H17c-9.35 0-17 7.65-17 17s7.65 17 17 17zm0 127.5h362.667c9.35 0 17-7.65 17-17s-7.65-17-17-17H17c-9.35 0-17 7.65-17 17s7.65 17 17 17zm0 127.5h362.667c9.35 0 17-7.65 17-17s-7.65-17-17-17H17c-9.35 0-17 7.65-17 17s7.65 17 17 17z"/></symbol><symbol viewBox="0 0 512 512" id="play" xmlns="http://www.w3.org/2000/svg"><path class="mplay_this" d="M354.2 247.4L219.1 155c-4.2-3.1-15.4-3.1-16.3 8.6v184.8c1 11.7 12.4 11.9 16.3 8.6l135.1-92.4c3.5-2.1 8.3-10.7 0-17.2zm-130.5 81.3V183.3L329.8 256l-106.1 72.7z"/><path d="M256 11C120.9 11 11 120.9 11 256s109.9 245 245 245 245-109.9 245-245S391.1 11 256 11zm0 469.1C132.4 480.1 31.9 379.6 31.9 256S132.4 31.9 256 31.9 480.1 132.4 480.1 256 379.6 480.1 256 480.1z"/></symbol><symbol viewBox="0 0 31.49 31.49" id="right-arrow" xmlns="http://www.w3.org/2000/svg"><path d="M21.205 5.007a1.112 1.112 0 0 0-1.587 0 1.12 1.12 0 0 0 0 1.571l8.047 8.047H1.111A1.106 1.106 0 0 0 0 15.737c0 .619.492 1.127 1.111 1.127h26.554l-8.047 8.032c-.429.444-.429 1.159 0 1.587a1.112 1.112 0 0 0 1.587 0l9.952-9.952a1.093 1.093 0 0 0 0-1.571l-9.952-9.953z"/></symbol><symbol viewBox="0 0 512 512" id="search" xmlns="http://www.w3.org/2000/svg"><path d="M495 466.2L377.2 348.4c29.2-35.6 46.8-81.2 46.8-130.9C424 103.5 331.5 11 217.5 11 103.4 11 11 103.5 11 217.5S103.4 424 217.5 424c49.7 0 95.2-17.5 130.8-46.7L466.1 495c8 8 20.9 8 28.9 0 8-7.9 8-20.9 0-28.8zm-277.5-83.3C126.2 382.9 52 308.7 52 217.5S126.2 52 217.5 52C308.7 52 383 126.3 383 217.5s-74.3 165.4-165.5 165.4z"/></symbol><symbol viewBox="0 0 455 455" id="twitter" xmlns="http://www.w3.org/2000/svg"><path d="M0 0v455h455V0H0zm352.751 163.259c.123 2.773.186 5.561.186 8.36 0 85.403-65.002 183.876-183.873 183.876-36.496 0-70.466-10.697-99.065-29.037 5.056.601 10.199.907 15.417.907 30.278 0 58.143-10.331 80.262-27.668-28.28-.519-52.148-19.204-60.373-44.88a64.403 64.403 0 0 0 12.161 1.163c5.894 0 11.604-.794 17.027-2.268-29.563-5.939-51.841-32.057-51.841-63.368 0-.273 0-.544.006-.814a64.366 64.366 0 0 0 29.271 8.084c-17.342-11.589-28.748-31.371-28.748-53.79 0-11.845 3.187-22.945 8.751-32.492 31.873 39.101 79.493 64.828 133.203 67.526a64.831 64.831 0 0 1-1.677-14.729c0-35.688 28.938-64.623 64.626-64.623 18.589 0 35.385 7.847 47.173 20.406a129.352 129.352 0 0 0 41.038-15.681c-4.824 15.092-15.071 27.754-28.415 35.754 13.074-1.563 25.528-5.038 37.118-10.178-8.662 12.959-19.618 24.342-32.247 33.452z"/></symbol><symbol viewBox="0 0 511.626 511.626" id="wishlist" xmlns="http://www.w3.org/2000/svg"><path d="M475.366 71.949c-24.175-23.606-57.575-35.404-100.215-35.404-11.8 0-23.843 2.046-36.117 6.136-12.279 4.093-23.702 9.615-34.256 16.562-10.568 6.945-19.65 13.467-27.269 19.556a263.828 263.828 0 0 0-21.696 19.414 264.184 264.184 0 0 0-21.698-19.414c-7.616-6.089-16.702-12.607-27.268-19.556-10.564-6.95-21.985-12.468-34.261-16.562-12.275-4.089-24.316-6.136-36.116-6.136-42.637 0-76.039 11.801-100.211 35.404C12.087 95.55 0 128.286 0 170.16c0 12.753 2.24 25.891 6.711 39.398 4.471 13.514 9.566 25.031 15.275 34.546 5.708 9.514 12.181 18.792 19.414 27.834 7.233 9.041 12.519 15.272 15.846 18.698 3.33 3.426 5.948 5.903 7.851 7.427L243.25 469.938c3.427 3.426 7.614 5.144 12.562 5.144s9.138-1.718 12.563-5.144l177.87-171.31c43.588-43.58 65.38-86.406 65.38-128.472.001-41.877-12.085-74.61-36.259-98.207zm-53.961 199.846L255.813 431.391 89.938 271.507C54.344 235.922 36.55 202.133 36.55 170.156c0-15.415 2.046-29.026 6.136-40.824 4.093-11.8 9.327-21.177 15.703-28.124 6.377-6.949 14.132-12.607 23.268-16.988 9.141-4.377 18.086-7.328 26.84-8.85 8.754-1.52 18.079-2.281 27.978-2.281 9.896 0 20.557 2.424 31.977 7.279 11.418 4.853 21.934 10.944 31.545 18.271 9.613 7.332 17.845 14.183 24.7 20.557 6.851 6.38 12.559 12.229 17.128 17.559 3.424 4.189 8.091 6.283 13.989 6.283 5.9 0 10.562-2.094 13.99-6.283 4.568-5.33 10.28-11.182 17.131-17.559 6.852-6.374 15.085-13.222 24.694-20.557 9.613-7.327 20.129-13.418 31.553-18.271 11.416-4.854 22.08-7.279 31.977-7.279s19.219.761 27.977 2.281c8.757 1.521 17.702 4.473 26.84 8.85 9.137 4.38 16.892 10.042 23.267 16.988 6.376 6.947 11.612 16.324 15.705 28.124 4.086 11.798 6.132 25.409 6.132 40.824-.002 31.977-17.89 65.86-53.675 101.639z"/></symbol></svg>